<svg xmlns="http://www.w3.org/2000/svg" viewBox="-61.5 -9.5 200 200"><circle cx="38.5" cy="90.5" r="100" fill="#D8E4E7"/><path fill="none" stroke="#78275A" stroke-linecap="round" stroke-width="2" d="M68.99 179.99c0-8.2-6.65-14.85-14.85-14.85h-7.35m14.86 9.88a9.94 9.94 0 0 0-9.94-9.94H46.8"/><path fill="#116A73" d="M115.62 67.85H-11C18.9 55.45 18.58 1.77 55.07 1.77c34.07 0 41.4 47.37 61.56 63.2 1.2.95.52 2.88-1.01 2.88"/><path fill="none" stroke="#78275A" stroke-linecap="round" stroke-linejoin="round" stroke-width="2" d="M115.62 67.85H-11C18.9 55.45 18.58 1.77 55.07 1.77c34.07 0 41.4 47.37 61.56 63.2 1.2.95.52 2.88-1.01 2.88z"/><path fill="#E3684F" d="M73.1 96.72c-1.14 2.16-2.3 4.31-3.43 6.47a29.35 29.35 0 0 1 7.91 38.15 29.35 29.35 0 0 0-1.15-51.68c-.81 2.4-2.08 4.7-3.33 7.06"/><path fill="none" stroke="#78275A" stroke-linecap="round" stroke-linejoin="round" stroke-width="2" d="M73.1 96.72c-1.14 2.16-2.3 4.31-3.43 6.47a29.35 29.35 0 0 1 7.91 38.15 29.35 29.35 0 0 0-1.15-51.68c-.81 2.4-2.08 4.7-3.33 7.06z"/><path fill="#E3684F" d="M73.1 96.72c-2.29 4.34-4.64 8.66-6.83 13.05a29.36 29.36 0 0 1 11.2 31.51 29.35 29.35 0 0 0-3.97-45.29l-.4.73"/><path fill="none" stroke="#78275A" stroke-linecap="round" stroke-linejoin="round" stroke-width="2" d="M73.1 96.72c-2.29 4.34-4.64 8.66-6.83 13.05a29.36 29.36 0 0 1 11.2 31.51 29.35 29.35 0 0 0-3.97-45.29l-.4.73zm-3.44 6.47a29.35 29.35 0 0 1 7.91 38.15l-7.9-38.15z"/><path fill="#E3684F" d="M15.4 106.02c-.2-2.96-.37-5.93-.57-8.9a35.72 35.72 0 0 1-32.57-34.47 35.73 35.73 0 0 0 34.2 52.8c-.68-3-.84-6.19-1.06-9.43"/><path fill="none" stroke="#78275A" stroke-linecap="round" stroke-linejoin="round" stroke-width="2" d="M15.4 106.02c-.2-2.96-.37-5.93-.57-8.9a35.72 35.72 0 0 1-32.57-34.47 35.73 35.73 0 0 0 34.2 52.8c-.68-3-.84-6.19-1.06-9.43z"/><path fill="#E3684F" d="M14.15 88.14a35.73 35.73 0 0 1-31.73-25.49 35.72 35.72 0 0 0 33.05 44.37l-.07-1c-.4-5.96-.72-11.93-1.25-17.88z"/><path fill="none" stroke="#78275A" stroke-linecap="round" stroke-linejoin="round" stroke-width="2" d="M15.4 106.02c-.4-5.96-.72-11.93-1.25-17.88a35.73 35.73 0 0 1-31.73-25.49 35.72 35.72 0 0 0 33.05 44.37l-.07-1zm-.57-8.9a35.72 35.72 0 0 1-32.57-34.47"/><path fill="#E3684F" d="M59.8 145.44l-7.17 19.4h-3.06l.5-20.31"/><path fill="none" stroke="#78275A" stroke-linecap="round" stroke-width="2" d="M59.8 145.44l-7.17 19.4h-3.06l.5-20.31m-23.93 35.46c0-8.2 6.65-14.85 14.85-14.85h7.35m-14.87 9.88a9.94 9.94 0 0 1 9.94-9.94h4.92"/><path fill="#E3684F" d="M35.32 145.44l7.17 19.4h3.07l-.5-20.31"/><path fill="none" stroke="#78275A" stroke-linecap="round" stroke-width="2" d="M35.32 145.44l7.17 19.4h3.07l-.5-20.31"/><path fill="#E3684F" d="M67.1 145.9H27.87c-7.52 0-13.61-6.1-13.61-13.61V79.12h66.46v53.17c0 7.51-6.1 13.61-13.62 13.61"/><path fill="#F5BB42" d="M53.21 87.11l-5.8 5.8-5.81-5.8 5.81-6.14 5.8 6.14"/><path fill="none" stroke="#78275A" stroke-linecap="round" stroke-linejoin="round" stroke-width="2" d="M53.21 87.11l-5.8 5.8-5.8-5.8 5.8-6.14 5.8 6.14zm27.67-7.21v52.94c0 7.21-5.85 13.06-13.06 13.06h-40.5a13.06 13.06 0 0 1-13.07-13.06V79.12l66.63.78z"/><path fill="#E98557" d="M27 144.87v-11.03c0-11.57 9.47-21.04 21.04-21.04s21.03 9.47 21.03 21.04v11.03H27"/><path fill="#FFFFFE" d="M65.1 51.04a20.29 20.29 0 0 0-17.63 10.24 20.29 20.29 0 1 0 0 20.1 20.29 20.29 0 1 0 17.62-30.34"/><path fill="none" stroke="#78275A" stroke-width="2" d="M65.1 51.04a20.29 20.29 0 0 0-17.63 10.24 20.29 20.29 0 1 0 0 20.1 20.29 20.29 0 1 0 17.62-30.34z"/><path fill="#00AD9A" d="M101.02 67.85H-18.45c-1.59 0-2.23-2.07-.9-2.95C5.13 48.63 7.1 1.77 41.2 1.77c33.74 0 41.26 46.49 61 62.75 1.36 1.12.6 3.33-1.18 3.33"/><path fill="none" stroke="#78275A" stroke-linecap="round" stroke-linejoin="round" stroke-width="2" d="M101.02 67.85H-18.45c-1.59 0-2.23-2.07-.9-2.95C5.13 48.63 7.1 1.77 41.2 1.77c33.74 0 41.26 46.49 61 62.75 1.36 1.12.6 3.33-1.18 3.33z"/><path fill="#F6EB3D" d="M103.96 26.07L86.64 43.39l-7.04-7.04 17.32-17.32.64 6.4 6.4.64"/><path fill="none" stroke="#78275A" stroke-linecap="round" stroke-linejoin="round" stroke-width="2" d="M103.96 26.07L86.64 43.39l-7.04-7.04 17.32-17.32.64 6.4z"/><path fill="#F6EB3D" d="M93.45 42.18a13.08 13.08 0 1 1-26.15.01 13.08 13.08 0 0 1 26.16-.01"/><path fill="none" stroke="#78275A" stroke-linecap="round" stroke-linejoin="round" stroke-width="2" d="M93.45 42.18a13.08 13.08 0 1 1-26.15.01 13.08 13.08 0 0 1 26.16-.01z"/><path fill="#78275A" d="M68.25 75.66h-6.3a1.41 1.41 0 1 1 0-2.83h6.3a1.41 1.41 0 1 1 0 2.83M30.15 75.66h-6.3a1.41 1.41 0 1 1 0-2.83h6.3a1.41 1.41 0 1 1 0 2.83"/><path fill="#0C827C" d="M23.15 72.95l-27.53-1.5a1.81 1.81 0 0 0-1.9 1.8v2.99a1.8 1.8 0 0 0 1.9 1.8l27.53-1.49a1.8 1.8 0 0 0 0-3.6"/><path fill="none" stroke="#78275A" stroke-linecap="round" stroke-linejoin="round" stroke-width="2" d="M23.15 72.95l-27.53-1.5a1.81 1.81 0 0 0-1.9 1.8v2.99a1.8 1.8 0 0 0 1.9 1.8l27.53-1.49a1.8 1.8 0 0 0 0-3.6z"/><path fill="#F6EB3D" d="M3 68.58l-27.35-6.09v24.52L3 80.91a6.3 6.3 0 0 0 0-12.33"/><path fill="none" stroke="#78275A" stroke-linecap="round" stroke-linejoin="round" stroke-width="2" d="M3 68.58l-27.35-6.09v24.52L3 80.91a6.3 6.3 0 0 0 0-12.33z"/><path fill="#F6EB3D" d="M-20.24 59.16h-14.98v31.18h14.98c2.87 0 5.2-6.98 5.2-15.59s-2.33-15.59-5.2-15.59"/><path fill="none" stroke="#78275A" stroke-linecap="round" stroke-linejoin="round" stroke-width="2" d="M-20.24 59.16h-14.98v31.18h14.98c2.87 0 5.2-6.98 5.2-15.59s-2.33-15.59-5.2-15.59z"/><path fill="#F6EB3D" d="M-30.02 74.75c0 8.61-2.33 15.59-5.2 15.59s-5.2-6.98-5.2-15.59 2.33-15.59 5.2-15.59 5.2 6.98 5.2 15.59"/><path fill="none" stroke="#78275A" stroke-linecap="round" stroke-linejoin="round" stroke-width="2" d="M-30.02 74.75c0 8.61-2.33 15.59-5.2 15.59s-5.2-6.98-5.2-15.59 2.33-15.59 5.2-15.59 5.2 6.98 5.2 15.59z"/><path fill="#58BCBC" d="M-31.96 62.61c-2.37 1.01-4.18 6.05-4.18 12.14 0 6.08 1.8 11.13 4.18 12.14 1.18-2.86 1.94-7.23 1.94-12.14s-.76-9.29-1.94-12.14"/><path fill="none" stroke="#78275A" stroke-linecap="round" stroke-linejoin="round" stroke-width="2" d="M-31.96 62.61c-2.37 1.01-4.18 6.05-4.18 12.14 0 6.08 1.8 11.13 4.18 12.14 1.18-2.86 1.94-7.23 1.94-12.14s-.76-9.29-1.94-12.14z"/></svg>